<?xml version="1.0" encoding="iso-8859-1"?>
<!-- Generator: Adobe Illustrator 19.0.0, SVG Export Plug-In . SVG Version: 6.00 Build 0)  -->
<svg version="1.1" id="Layer_1" xmlns="http://www.w3.org/2000/svg" xmlns:xlink="http://www.w3.org/1999/xlink" x="0px" y="0px"
	 viewBox="0 0 512 512" style="enable-background:new 0 0 512 512;" xml:space="preserve">
<path style="fill:#8F5DAF;" d="M255.999,504.163c-62.842,0-121.467-36.423-165.074-102.559
	c-41.928-63.589-65.451-148.048-66.238-237.819c-0.022-2.461,0.479-4.901,1.466-7.166c2.207-5.064,4.908-6.856,12.125-11.645
	c40.564-26.922,109.585-78.547,116.075-121.824c1.319-8.795,9.048-15.314,18.157-15.314h155.992c9.107,0,16.839,6.519,18.158,15.314
	c5.169,34.461,51.716,79.199,127.705,122.746c5.453,3.125,9.055,5.19,11.476,10.731c0.991,2.268,1.491,4.711,1.469,7.176
	c-0.791,89.768-24.315,174.222-66.241,237.806C377.46,467.742,318.839,504.163,255.999,504.163z"/>
<g>
	<circle style="fill:#E28883;" cx="197.317" cy="211.31" r="24.106"/>
	<circle style="fill:#E28883;" cx="316.059" cy="211.31" r="24.106"/>
</g>
<path style="opacity:0.1;enable-background:new    ;" d="M123.707,401.604C81.78,338.015,58.256,253.556,57.469,163.786
	c-0.022-2.461,0.479-4.901,1.466-7.166c2.207-5.064,4.908-6.856,12.126-11.645c40.564-26.922,109.585-78.547,116.075-121.824
	c1.319-8.795,9.048-15.314,18.157-15.314H172.51c-9.109,0-16.839,6.519-18.157,15.314c-6.49,43.277-75.511,94.902-116.075,121.824
	c-7.217,4.79-9.918,6.582-12.125,11.645c-0.987,2.265-1.488,4.705-1.466,7.166c0.787,89.77,24.311,174.23,66.238,237.819
	c43.606,66.136,102.231,102.559,165.073,102.559c5.499,0,10.964-0.296,16.392-0.849
	C215.796,497.544,163.498,461.952,123.707,401.604z"/>
<path style="fill:#53E7D3;" d="M267.627,313.393c-3.543,1.285-7.365,1.988-11.353,1.988c-3.987,0-7.81-0.703-11.352-1.988
	c-28.825,23.159-46.136,56.312-45.678,88.446h0.003c0.044,1.603,0.527,10.274,1.534,14.748c0.042,0.248,0.068,0.392,0.097,0.537
	c0.052,0.251,0.117,0.497,0.197,0.737c6.561,26.111,29.186,44.301,55.198,44.301c26.188,0,48.941-18.437,55.329-44.83l-0.021-0.003
	c0.066-0.22,0.122-0.451,0.176-0.692c1.007-4.438,1.499-13.214,1.543-14.797h0.002C313.763,369.704,296.452,336.551,267.627,313.393
	z"/>
<path style="opacity:0.1;enable-background:new    ;" d="M222.313,417.86c-0.08-0.239-0.146-0.486-0.197-0.737
	c-0.028-0.144-0.055-0.289-0.097-0.537c-1.007-4.473-1.49-13.145-1.534-14.748h-0.003c-0.463-32.409,17.146-65.853,46.411-89.036
	c-2.214-1.754-4.488-3.457-6.833-5.088c-1.131-0.787-2.46-1.18-3.786-1.18c-1.328,0-2.657,0.392-3.785,1.18
	c-33.34,23.197-53.743,59.263-53.245,94.123h0.003c0.044,1.603,0.527,10.275,1.534,14.748c0.042,0.248,0.214,1.033,0.295,1.274
	c6.561,26.111,29.186,44.301,55.198,44.301c3.617,0,7.166-0.364,10.618-1.04C245.52,456.937,227.962,440.34,222.313,417.86z"/>
<circle style="fill:#FFFFFF;" cx="256.27" cy="403.55" r="33.283"/>
<path style="opacity:0.1;enable-background:new    ;" d="M244.813,403.552c0-14.56,9.352-26.925,22.372-31.443
	c-3.42-1.186-7.088-1.839-10.911-1.839c-18.381,0-33.283,14.9-33.283,33.283c0,18.381,14.902,33.282,33.283,33.282
	c3.823,0,7.492-0.653,10.911-1.839C254.165,430.477,244.813,418.111,244.813,403.552z"/>
<g>
	<circle style="fill:#EFBA50;" cx="369.443" cy="151.709" r="24.106"/>
	<circle style="fill:#EFBA50;" cx="143.097" cy="151.709" r="24.106"/>
</g>
<circle style="fill:#FDF276;" cx="256.27" cy="282.102" r="33.283"/>
<path style="opacity:0.1;enable-background:new    ;" d="M244.813,282.099c0-14.56,9.352-26.925,22.372-31.443
	c-3.42-1.186-7.088-1.839-10.911-1.839c-18.381,0-33.283,14.9-33.283,33.282s14.902,33.282,33.283,33.282
	c3.823,0,7.492-0.653,10.911-1.839C254.165,309.024,244.813,296.658,244.813,282.099z"/>
<path d="M493.022,153.489c-3.459-7.913-8.947-11.059-14.76-14.391C405.45,97.372,359.151,53.593,354.41,21.988
	C352.529,9.452,341.392,0,328.502,0h-58.92c-4.329,0-7.837,3.509-7.837,7.837s3.508,7.837,7.837,7.837h58.92
	c5.195,0,9.669,3.715,10.408,8.64c3.444,22.958,22.398,49.013,54.858,76.218c-4.032,7.235-8.307,14.364-12.815,21.378
	c-3.573-1.384-7.45-2.151-11.505-2.151c-17.616,0-31.948,14.332-31.948,31.948c0,7.229,2.417,13.902,6.48,19.262
	c-3.81,4.344-7.72,8.619-11.721,12.824c-4.752-2.808-10.288-4.427-16.197-4.427c-17.616,0-31.949,14.332-31.949,31.948
	c0,4.896,1.111,9.536,3.087,13.688c-7.327,5.824-14.857,11.444-22.589,16.831c-2.694-0.557-5.483-0.851-8.338-0.851
	c-2.857,0-5.648,0.295-8.342,0.852c-7.526-5.245-14.855-10.707-21.992-16.359c2.121-4.27,3.321-9.077,3.321-14.16
	c0-5.444-1.396-10.823-4.036-15.554c-2.111-3.78-6.882-5.133-10.662-3.024c-3.779,2.11-5.133,6.883-3.024,10.662
	c1.341,2.401,2.049,5.139,2.049,7.915c0,8.974-7.301,16.274-16.274,16.274c-8.974,0-16.274-7.301-16.274-16.274
	c0-8.974,7.301-16.274,16.274-16.274c4.328,0,7.837-3.509,7.837-7.837c0-4.328-3.509-7.837-7.837-7.837
	c-6.139,0-11.876,1.744-16.75,4.757c-4.102-4.307-8.104-8.69-12.004-13.143c4.07-5.361,6.49-12.039,6.49-19.274
	c0-17.616-14.332-31.948-31.948-31.948c-4.07,0-7.959,0.773-11.542,2.166c-5.693-8.86-10.997-17.914-15.923-27.13
	c27.755-26.258,43.391-49.967,46.469-70.481c0.739-4.925,5.212-8.639,10.407-8.639h65.723c4.329,0,7.837-3.509,7.837-7.837
	S242.564,0,238.235,0H172.51c-12.891,0-24.028,9.453-25.907,21.989C142.19,51.41,101.128,93.857,33.946,138.445
	c-7.639,5.069-11.846,7.861-14.977,15.042c-1.437,3.296-2.15,6.783-2.119,10.367c0.8,91.263,24.784,177.229,67.532,242.064
	C129.488,474.326,190.435,512,255.999,512c65.559,0,126.505-37.672,171.613-106.076c17.913-27.166,32.632-58.156,43.747-92.106
	c1.347-4.113-0.895-8.539-5.009-9.886c-4.115-1.345-8.54,0.897-9.887,5.009c-10.682,32.625-24.791,62.351-41.937,88.354
	c-42.11,63.86-98.41,99.03-158.527,99.03c-60.121,0-116.423-35.172-158.532-99.036c-41.106-62.343-64.17-145.294-64.944-233.573
	c-0.013-1.367,0.261-2.7,0.813-3.965c1.212-2.779,2.186-3.543,9.276-8.247c16.695-11.08,39.771-27.406,61.038-45.872
	c4.717,8.616,9.765,17.086,15.125,25.396c-4.748,5.578-7.623,12.796-7.623,20.677c0,17.616,14.332,31.948,31.948,31.948
	c4.712,0,9.186-1.033,13.216-2.873c4.323,4.95,8.765,9.817,13.327,14.593c-2.716,4.695-4.279,10.137-4.279,15.94
	c0,17.616,14.332,31.948,31.948,31.948c6.862,0,13.219-2.182,18.432-5.878c5.143,4.085,10.386,8.067,15.725,11.951
	c-9.904,7.515-16.313,19.405-16.313,32.767c0,13.329,6.378,25.19,16.24,32.709c-25.466,24.058-40.43,55.991-39.986,87.142
	c0.037,2.736,0.3,5.494,0.559,8.215c0.31,3.261,0.599,6.699,1.569,9.846c7.511,29.443,33.275,49.986,62.737,49.986
	c29.818,0,55.704-20.899,62.946-50.824c0.866-3.492,1.212-7.12,1.51-10.698c0.18-2.16,0.41-4.356,0.41-6.526
	c0.148-10.292-1.373-20.786-4.519-31.189c-1.253-4.143-5.626-6.489-9.77-5.233c-4.143,1.253-6.486,5.627-5.233,9.77
	c2.679,8.86,3.975,17.751,3.85,26.323c-0.136,4.856-0.796,9.606-1.607,14.377c-5.702,22.594-25.197,38.326-47.587,38.326
	c-22.347,0-41.92-15.78-47.598-38.374c-1.163-4.651-1.457-9.652-1.598-14.432c-0.333-28.519,14.596-57.994,39.642-79.433
	c3.068,0.734,6.264,1.133,9.555,1.133c3.286,0,6.479-0.398,9.545-1.131c10.143,8.693,18.806,18.85,25.397,29.879
	c2.22,3.715,7.031,4.929,10.747,2.708c3.716-2.22,4.928-7.031,2.708-10.747c-6.31-10.563-14.304-20.389-23.535-29.106
	c9.87-7.518,16.258-19.387,16.258-32.723c0-13.363-6.411-25.254-16.316-32.77c5.473-3.978,10.851-8.061,16.122-12.256
	c5.291,3.885,11.814,6.186,18.866,6.186c17.615,0,31.947-14.332,31.947-31.948c0-6.036-1.683-11.686-4.604-16.506
	c4.378-4.598,8.652-9.276,12.811-14.033c4.034,1.843,8.513,2.88,13.23,2.88c17.616,0,31.948-14.332,31.948-31.948
	c0-7.894-2.884-15.123-7.645-20.704c4.349-6.74,8.486-13.587,12.413-20.527c18.109,13.923,39.63,28.083,64.304,42.223
	c5.284,3.028,6.866,4.036,8.191,7.068c0.552,1.264,0.827,2.601,0.814,3.97c-0.351,39.805-5.206,78.644-14.429,115.438
	c-1.053,4.198,1.497,8.454,5.696,9.508c0.639,0.16,1.28,0.237,1.911,0.237c3.509,0,6.703-2.375,7.594-5.933
	c9.525-37.994,14.538-78.068,14.901-119.112C495.178,160.282,494.464,156.789,493.022,153.489
	C489.564,145.576,494.464,156.789,493.022,153.489C489.564,145.576,494.464,156.789,493.022,153.489z M143.099,167.979
	c-8.974,0-16.274-7.301-16.274-16.274c0-8.974,7.301-16.274,16.274-16.274c8.974,0,16.274,7.301,16.274,16.274
	C159.374,160.678,152.073,167.979,143.099,167.979z M281.72,282.099c0,14.031-11.415,25.445-25.446,25.445
	c-14.031,0-25.446-11.414-25.446-25.445c0-14.031,11.416-25.445,25.446-25.445C270.304,256.654,281.72,268.069,281.72,282.099z
	 M316.063,227.587c-8.975,0-16.275-7.301-16.275-16.274c0-8.974,7.301-16.274,16.275-16.274c8.974,0,16.273,7.301,16.273,16.274
	C332.338,220.286,325.037,227.587,316.063,227.587z M369.448,167.979c-8.974,0-16.274-7.301-16.274-16.274
	c0-8.974,7.301-16.274,16.274-16.274c8.974,0,16.274,7.301,16.274,16.274C385.723,160.678,378.422,167.979,369.448,167.979z"/>
<path d="M256.274,362.432c-22.673,0-41.12,18.446-41.12,41.12c0,22.673,18.446,41.119,41.12,41.119
	c22.674,0,41.12-18.446,41.12-41.119C297.393,380.879,278.948,362.432,256.274,362.432z M256.274,428.997
	c-14.031,0-25.446-11.414-25.446-25.445c0-14.031,11.416-25.446,25.446-25.446s25.446,11.414,25.446,25.446
	C281.72,417.583,270.304,428.997,256.274,428.997z"/>
<g>
</g>
<g>
</g>
<g>
</g>
<g>
</g>
<g>
</g>
<g>
</g>
<g>
</g>
<g>
</g>
<g>
</g>
<g>
</g>
<g>
</g>
<g>
</g>
<g>
</g>
<g>
</g>
<g>
</g>
</svg>
