<?xml version="1.0" standalone="no"?>
<!DOCTYPE svg PUBLIC "-//W3C//DTD SVG 20010904//EN"
 "http://www.w3.org/TR/2001/REC-SVG-20010904/DTD/svg10.dtd">
<svg version="1.0" xmlns="http://www.w3.org/2000/svg"
 width="543.000000pt" height="423.000000pt" viewBox="0 0 543.000000 423.000000"
 preserveAspectRatio="xMidYMid meet">

<g transform="translate(0.000000,423.000000) scale(0.100000,-0.100000)"
fill="#000000" stroke="none">
<path d="M1465 4224 c-420 -34 -711 -127 -947 -304 -224 -168 -332 -340 -345
-547 -14 -207 62 -345 234 -430 69 -34 76 -36 148 -30 55 4 88 13 126 33 113
62 168 164 238 444 91 368 165 497 328 578 102 51 189 67 363 66 145 0 161 -2
255 -32 338 -106 515 -405 515 -868 0 -190 -43 -322 -141 -437 -106 -124 -367
-247 -924 -437 -656 -223 -850 -324 -1018 -526 -209 -253 -311 -544 -293 -844
27 -470 329 -794 806 -866 52 -7 163 -14 245 -14 442 0 813 153 1106 456 76
79 187 221 215 277 9 16 17 27 19 25 2 -2 13 -48 24 -103 37 -181 115 -293
276 -400 151 -100 292 -159 475 -200 199 -44 270 -50 590 -50 289 0 313 2 465
29 349 61 616 186 805 376 91 90 144 168 183 269 25 63 31 94 35 187 5 128
-10 198 -60 277 -39 60 -151 142 -226 163 -143 42 -291 -36 -370 -192 -38 -76
-55 -131 -87 -279 -90 -409 -214 -574 -475 -632 -97 -21 -307 -21 -407 1 -369
80 -574 388 -577 866 -1 172 11 236 64 344 61 124 137 189 337 290 150 75 254
116 666 262 487 173 690 258 822 347 123 82 282 273 365 436 78 157 120 335
120 515 0 141 -12 222 -50 338 -131 410 -534 641 -1070 614 -397 -19 -721
-155 -993 -416 -101 -96 -232 -259 -256 -317 -16 -40 -31 -43 -31 -5 0 50 -39
191 -71 254 -42 83 -115 158 -229 234 -189 126 -379 191 -667 229 -113 16
-484 27 -588 19z m2755 -324 c223 -65 408 -297 450 -563 17 -105 8 -290 -20
-386 -48 -171 -149 -319 -307 -450 -162 -136 -292 -218 -688 -436 -220 -121
-403 -243 -497 -333 -43 -41 -80 -73 -82 -71 -13 13 -30 488 -30 794 1 390 11
511 59 692 51 192 141 351 274 483 245 242 574 347 841 270z m-1850 -1675 c15
-322 7 -809 -15 -960 -37 -246 -111 -425 -238 -580 -137 -166 -308 -282 -504
-342 -75 -22 -107 -26 -218 -27 -112 -1 -140 2 -200 23 -198 67 -352 238 -421
466 -24 81 -27 105 -27 240 0 134 3 159 27 238 96 319 316 520 926 847 288
154 495 294 600 404 l45 47 6 -43 c4 -24 12 -165 19 -313z"/>
</g>
</svg>
