<?xml version="1.0" encoding="iso-8859-1"?>
<!-- Generator: Adobe Illustrator 19.0.0, SVG Export Plug-In . SVG Version: 6.00 Build 0)  -->
<svg version="1.1" id="Layer_1" xmlns="http://www.w3.org/2000/svg" xmlns:xlink="http://www.w3.org/1999/xlink" x="0px" y="0px"
	 viewBox="0 0 377.06 377.06" style="enable-background:new 0 0 377.06 377.06;" xml:space="preserve">
<g>
	<polyline style="fill:#F7B239;" points="296.396,213.175 80.664,213.175 87.515,179.386 289.544,179.386 296.396,213.175 	"/>
	<polyline style="fill:#F7B239;" points="371.059,361.525 326.49,361.525 296.396,213.175 289.544,179.386 280.024,132.432 
		273.681,101.165 318.25,101.165 324.594,132.432 371.059,361.525 	"/>
	<polyline style="fill:#A17A36;" points="289.544,179.386 269.019,179.386 275.87,213.175 296.396,213.175 289.544,179.386 	"/>
	<polyline style="fill:#F7B239;" points="103.379,101.165 97.035,132.432 87.515,179.386 80.664,213.175 50.57,361.525 6,361.525 
		52.466,132.432 58.809,101.165 103.379,101.165 	"/>
	<path style="fill:#F7B239;" d="M362.038,34.638v66.517H318.25H103.379H15.012V34.638c0-10.55,8.553-19.103,19.103-19.103h308.82
		C353.485,15.535,362.038,24.088,362.038,34.638z"/>
	<polyline style="fill:#A17A36;" points="103.379,101.165 58.809,101.165 52.466,132.432 97.035,132.432 103.379,101.165 	"/>
	<polyline style="fill:#A17A36;" points="318.25,101.165 273.681,101.165 280.024,132.432 324.594,132.432 318.25,101.165 	"/>
	<path style="fill:#FFFFFF;" d="M319.033,41.083H57.871c-3.313,0-6-2.686-6-6s2.687-6,6-6h261.162c3.313,0,6,2.686,6,6
		S322.346,41.083,319.033,41.083z"/>
	<path style="fill:#FFFFFF;" d="M342.493,41.079c-0.39,0-0.79-0.03-1.18-0.11c-0.38-0.08-0.76-0.2-1.12-0.35
		c-0.36-0.15-0.71-0.33-1.03-0.55c-0.33-0.22-0.64-0.47-0.92-0.74c-0.27-0.28-0.52-0.59-0.74-0.92c-0.22-0.32-0.4-0.67-0.55-1.03
		s-0.27-0.74-0.35-1.12c-0.07-0.39-0.11-0.78-0.11-1.18c0-0.39,0.04-0.78,0.11-1.17c0.08-0.38,0.2-0.76,0.35-1.12
		s0.33-0.71,0.55-1.04c0.22-0.33,0.47-0.63,0.74-0.91c0.28-0.28,0.59-0.53,0.92-0.74c0.32-0.22,0.67-0.41,1.03-0.56
		s0.74-0.26,1.12-0.34c0.78-0.15,1.58-0.15,2.35,0c0.38,0.08,0.76,0.19,1.12,0.34s0.71,0.34,1.04,0.56
		c0.33,0.21,0.63,0.46,0.91,0.74s0.53,0.58,0.75,0.91c0.21,0.33,0.4,0.68,0.55,1.04s0.26,0.74,0.34,1.12
		c0.08,0.39,0.12,0.78,0.12,1.17c0,1.58-0.64,3.13-1.76,4.25c-0.28,0.27-0.58,0.52-0.91,0.74c-0.33,0.22-0.68,0.4-1.04,0.55
		c-0.36,0.15-0.74,0.27-1.12,0.35C343.273,41.049,342.882,41.079,342.493,41.079z"/>
	<path style="fill:#FFFFFF;" d="M308.073,155.299c-0.4,0-0.79-0.04-1.18-0.12c-0.38-0.08-0.76-0.19-1.12-0.34s-0.71-0.34-1.04-0.55
		c-0.33-0.22-0.63-0.47-0.91-0.75c-0.27-0.27-0.53-0.58-0.74-0.91c-0.22-0.33-0.41-0.67-0.56-1.04c-0.15-0.36-0.26-0.74-0.34-1.12
		c-0.08-0.38-0.12-0.78-0.12-1.17s0.04-0.79,0.12-1.17c0.08-0.39,0.19-0.76,0.34-1.12c0.15-0.37,0.34-0.72,0.56-1.04
		c0.21-0.33,0.47-0.64,0.74-0.91c0.28-0.28,0.58-0.53,0.91-0.75s0.68-0.4,1.04-0.55c0.36-0.15,0.74-0.27,1.12-0.34
		c0.78-0.16,1.57-0.16,2.35,0c0.38,0.07,0.76,0.19,1.12,0.34s0.71,0.33,1.03,0.55c0.33,0.22,0.64,0.47,0.92,0.75
		c0.27,0.27,0.52,0.58,0.74,0.91c0.22,0.32,0.4,0.67,0.55,1.04c0.15,0.36,0.27,0.73,0.35,1.12c0.07,0.38,0.11,0.78,0.11,1.17
		s-0.04,0.79-0.11,1.17c-0.08,0.38-0.2,0.76-0.35,1.12c-0.15,0.37-0.33,0.71-0.55,1.04c-0.22,0.33-0.47,0.64-0.74,0.91
		c-0.28,0.28-0.59,0.53-0.92,0.75c-0.32,0.21-0.67,0.4-1.03,0.55c-0.36,0.15-0.74,0.26-1.12,0.34
		C308.853,155.259,308.463,155.299,308.073,155.299z"/>
	<path style="fill:#FFFFFF;" d="M344.258,333.76c-2.795,0-5.297-1.963-5.874-4.809l-31.893-157.236
		c-0.659-3.248,1.44-6.414,4.688-7.073c3.244-0.659,6.415,1.44,7.073,4.688l31.893,157.236c0.659,3.248-1.44,6.414-4.688,7.073
		C345.055,333.721,344.654,333.76,344.258,333.76z"/>
	<path style="fill:#333333;" d="M376.94,360.332l-51.352-253.177h36.45c3.313,0,6-2.686,6-6V34.638
		c0-13.842-11.261-25.103-25.103-25.103H34.115c-13.842,0-25.103,11.261-25.103,25.103v66.517c0,3.314,2.687,6,6,6h36.46
		L0.12,360.332c-0.358,1.764,0.096,3.596,1.235,4.99c1.139,1.394,2.845,2.202,4.645,2.202h44.569c2.854,0,5.313-2.01,5.88-4.807
		l29.119-143.543H291.49l29.119,143.543c0.567,2.797,3.026,4.807,5.88,4.807h44.569c1.8,0,3.506-0.809,4.645-2.202
		C376.844,363.928,377.298,362.096,376.94,360.332z M21.012,34.638c0-7.225,5.878-13.103,13.103-13.103h308.82
		c7.225,0,13.103,5.878,13.103,13.103v60.517H21.012V34.638z M268.773,107.155l13.432,66.231H94.854l13.432-66.231H268.773z
		 M45.664,355.525H13.339l50.375-248.36H96.04L45.664,355.525z M88.003,207.175l4.418-21.789h192.218l4.418,21.789H88.003z
		 M331.395,355.525l-50.375-248.36h32.325l50.375,248.36H331.395z"/>
</g>
<g>
</g>
<g>
</g>
<g>
</g>
<g>
</g>
<g>
</g>
<g>
</g>
<g>
</g>
<g>
</g>
<g>
</g>
<g>
</g>
<g>
</g>
<g>
</g>
<g>
</g>
<g>
</g>
<g>
</g>
</svg>
