<?xml version="1.0" encoding="iso-8859-1"?>
<!-- Generator: Adobe Illustrator 19.0.0, SVG Export Plug-In . SVG Version: 6.00 Build 0)  -->
<svg version="1.1" id="Layer_1" xmlns="http://www.w3.org/2000/svg" xmlns:xlink="http://www.w3.org/1999/xlink" x="0px" y="0px"
	 viewBox="0 0 511.997 511.997" style="enable-background:new 0 0 511.997 511.997;" xml:space="preserve">
<rect x="159.936" y="23.854" style="fill:#D5C9B3;" width="168.104" height="64.038"/>
<rect x="239.993" y="23.854" style="fill:#CBBBA0;" width="88.057" height="64.038"/>
<rect x="159.936" y="416.097" style="fill:#D5C9B3;" width="168.104" height="64.037"/>
<rect x="239.993" y="416.097" style="fill:#CBBBA0;" width="88.057" height="64.037"/>
<circle style="fill:#5EBAE7;" cx="239.993" cy="256.004" r="184.113"/>
<path style="fill:#36A9E1;" d="M239.989,71.883c101.685,0,184.117,82.432,184.117,184.116c0,101.685-82.432,184.116-184.117,184.116
	"/>
<circle style="fill:#D5C9B3;" cx="239.993" cy="256.004" r="160.104"/>
<path style="fill:#CBBBA0;" d="M239.989,95.898c88.423,0,160.101,71.68,160.101,160.101s-71.679,160.101-160.101,160.101"/>
<path style="fill:#1D1D1B;" d="M241.99,89.613c-91.746,0-166.387,74.641-166.387,166.387s74.641,166.388,166.387,166.388
	s166.388-74.642,166.388-166.388S333.736,89.613,241.99,89.613z M249.833,406.499v-26.421h-15.685v26.421
	c-76.869-3.96-138.696-65.787-142.657-142.657h26.421v-15.685H91.491c3.961-76.869,65.788-138.696,142.657-142.656v26.42h15.685
	v-26.42c76.87,3.96,138.697,65.787,142.658,142.656h-26.422v15.685h26.422C388.53,340.712,326.703,402.539,249.833,406.499z"/>
<rect x="234.148" y="249.102" style="fill:#FFFFFF;" width="15.685" height="13.787"/>
<g>
	<rect x="234.148" y="269.786" style="fill:#1D1D1B;" width="15.685" height="55.146"/>
	<rect x="255.773" y="248.161" style="fill:#1D1D1B;" width="89.615" height="15.685"/>
</g>
<g>
	<rect x="235.099" y="179.23" style="fill:#FFFFFF;" width="13.787" height="15.685"/>
	<rect x="207.525" y="179.23" style="fill:#FFFFFF;" width="13.786" height="15.685"/>
	<rect x="262.674" y="179.23" style="fill:#FFFFFF;" width="13.787" height="15.685"/>
</g>
<g>
	<rect x="152.376" style="fill:#1D1D1B;" width="179.23" height="15.685"/>
	<path style="fill:#1D1D1B;" d="M332.552,84.524V20.679H151.428v63.845C89.984,117.106,48.029,181.74,48.029,255.999
		s41.955,138.894,103.399,171.475v63.845h181.123v-63.845c61.444-32.581,103.399-97.216,103.399-171.475
		S393.996,117.106,332.552,84.524z M167.113,36.365h149.753v40.717c-23.051-9.683-48.348-15.042-74.876-15.042
		s-51.826,5.359-74.876,15.042V36.365H167.113z M316.866,475.634H167.113v-40.717c23.051,9.683,48.348,15.042,74.876,15.042
		s51.826-5.359,74.876-15.042v40.717H316.866z M241.99,434.276c-98.301,0-178.275-79.974-178.275-178.275
		S143.689,77.724,241.99,77.724s178.275,79.974,178.275,178.275S340.292,434.276,241.99,434.276z"/>
	<rect x="152.376" y="496.312" style="fill:#1D1D1B;" width="179.23" height="15.685"/>
	<rect x="448.282" y="239.994" style="fill:#1D1D1B;" width="15.685" height="32.02"/>
</g>
<g>
</g>
<g>
</g>
<g>
</g>
<g>
</g>
<g>
</g>
<g>
</g>
<g>
</g>
<g>
</g>
<g>
</g>
<g>
</g>
<g>
</g>
<g>
</g>
<g>
</g>
<g>
</g>
<g>
</g>
</svg>
